<?xml version="1.0" encoding="utf-8"?>
<!-- Generator: Adobe Illustrator 24.1.0, SVG Export Plug-In . SVG Version: 6.00 Build 0)  -->
<svg version="1.1" id="Layer_1" xmlns="http://www.w3.org/2000/svg" xmlns:xlink="http://www.w3.org/1999/xlink" x="0px" y="0px"
	 width="115.7px" height="19px" viewBox="0 0 115.7 19" style="enable-background:new 0 0 115.7 19;" xml:space="preserve">
<style type="text/css">
	.st0{fill:#FFD000;}
	.st1{opacity:0.5;fill:#FFD000;}
</style>
<g transform="translate(-902.757 -531.618)">
	<path class="st0" d="M911.8,532.2c0.2-0.5,0.8-0.8,1.3-0.5c0.2,0.1,0.4,0.3,0.5,0.5l2,4.8c0.1,0.3,0.5,0.6,0.8,0.6l5.2,0.4
		c0.6,0,1,0.5,0.9,1.1c0,0.3-0.1,0.5-0.3,0.7l-4,3.4c-0.3,0.2-0.4,0.6-0.3,1l1.2,5.1c0.1,0.5-0.2,1.1-0.7,1.2
		c-0.3,0.1-0.5,0-0.8-0.1l-4.5-2.7c-0.3-0.2-0.7-0.2-1,0l-4.5,2.7c-0.5,0.3-1.1,0.1-1.4-0.3c-0.1-0.2-0.2-0.5-0.1-0.8l1.2-5.1
		c0.1-0.4,0-0.7-0.3-1l-4-3.4c-0.4-0.4-0.5-1-0.1-1.4c0.2-0.2,0.4-0.3,0.7-0.3l5.2-0.4c0.4,0,0.7-0.3,0.8-0.6L911.8,532.2z"/>
	<path class="st0" d="M935.8,532.2c0.2-0.5,0.8-0.8,1.3-0.5c0.2,0.1,0.4,0.3,0.5,0.5l2,4.8c0.1,0.3,0.5,0.6,0.8,0.6l5.2,0.4
		c0.6,0,1,0.5,0.9,1.1c0,0.3-0.1,0.5-0.3,0.7l-4,3.4c-0.3,0.2-0.4,0.6-0.3,1l1.2,5.1c0.1,0.5-0.2,1.1-0.7,1.2
		c-0.3,0.1-0.5,0-0.8-0.1l-4.5-2.7c-0.3-0.2-0.7-0.2-1,0l-4.5,2.7c-0.5,0.3-1.1,0.1-1.4-0.3c-0.1-0.2-0.2-0.5-0.1-0.8l1.2-5.1
		c0.1-0.4,0-0.7-0.3-1l-4-3.4c-0.4-0.4-0.5-1-0.1-1.4c0.2-0.2,0.4-0.3,0.7-0.3l5.2-0.4c0.4,0,0.7-0.3,0.8-0.6L935.8,532.2z"/>
	<path class="st0" d="M959.8,532.2c0.2-0.5,0.8-0.8,1.3-0.5c0.2,0.1,0.4,0.3,0.5,0.5l2,4.8c0.1,0.3,0.5,0.6,0.8,0.6l5.2,0.4
		c0.6,0,1,0.5,0.9,1.1c0,0.3-0.1,0.5-0.3,0.7l-4,3.4c-0.3,0.2-0.4,0.6-0.3,1l1.2,5.1c0.1,0.5-0.2,1.1-0.7,1.2
		c-0.3,0.1-0.5,0-0.8-0.1l-4.5-2.7c-0.3-0.2-0.7-0.2-1,0l-4.5,2.7c-0.5,0.3-1.1,0.1-1.4-0.3c-0.1-0.2-0.2-0.5-0.1-0.8l1.2-5.1
		c0.1-0.4,0-0.7-0.3-1l-4-3.4c-0.4-0.4-0.5-1-0.1-1.4c0.2-0.2,0.4-0.3,0.7-0.3l5.2-0.4c0.4,0,0.7-0.3,0.8-0.6L959.8,532.2z"/>
	<path class="st0" d="M983.8,532.2c0.2-0.5,0.8-0.8,1.3-0.5c0.2,0.1,0.4,0.3,0.5,0.5l2,4.8c0.1,0.3,0.5,0.6,0.8,0.6l5.2,0.4
		c0.6,0,1,0.5,0.9,1.1c0,0.3-0.1,0.5-0.3,0.7l-4,3.4c-0.3,0.2-0.4,0.6-0.3,1l1.2,5.1c0.1,0.5-0.2,1.1-0.7,1.2
		c-0.3,0.1-0.5,0-0.8-0.1l-4.5-2.7c-0.3-0.2-0.7-0.2-1,0l-4.5,2.7c-0.5,0.3-1.1,0.1-1.4-0.3c-0.1-0.2-0.2-0.5-0.1-0.8l1.2-5.1
		c0.1-0.4,0-0.7-0.3-1l-4-3.4c-0.4-0.4-0.5-1-0.1-1.4c0.2-0.2,0.4-0.3,0.7-0.3l5.2-0.4c0.4,0,0.7-0.3,0.8-0.6L983.8,532.2z"/>
	<path class="st0" d="M1007.8,532.2l-2,4.8c-0.1,0.3-0.5,0.6-0.8,0.6l-5.2,0.4c-0.6,0-1,0.5-0.9,1.1c0,0.3,0.1,0.5,0.3,0.7l4,3.4
		c0.3,0.2,0.4,0.6,0.3,1l-1.2,5.1c-0.1,0.5,0.2,1.1,0.7,1.2c0.3,0.1,0.5,0,0.8-0.1l4.5-2.7c0.2-0.1,0.3-0.1,0.5-0.1v-16
		C1008.3,531.6,1007.9,531.9,1007.8,532.2z"/>
	<path class="st1" d="M1018.1,539.9c0.4-0.4,0.5-1,0.1-1.4c-0.2-0.2-0.4-0.3-0.7-0.3l-5.2-0.4c-0.4,0-0.7-0.3-0.8-0.6l-2-4.8
		c-0.2-0.4-0.5-0.6-0.9-0.6v16c0.2,0,0.4,0.1,0.5,0.1l4.5,2.7c0.5,0.3,1.1,0.1,1.4-0.3c0.1-0.2,0.2-0.5,0.1-0.8l-1.2-5.1
		c-0.1-0.4,0-0.7,0.3-1L1018.1,539.9z"/>
</g>
</svg>
