<?xml version="1.0" encoding="utf-8"?>
<!-- Generator: Adobe Illustrator 24.2.3, SVG Export Plug-In . SVG Version: 6.00 Build 0)  -->
<svg version="1.1" id="Layer_1" xmlns="http://www.w3.org/2000/svg" xmlns:xlink="http://www.w3.org/1999/xlink" x="0px" y="0px"
	 width="87px" height="37px" viewBox="0 0 87 37" style="enable-background:new 0 0 87 37;" xml:space="preserve">
<style type="text/css">
	.st0{fill-rule:evenodd;clip-rule:evenodd;fill:#32325D;}
	.st1{fill:#32325D;}
</style>
<path class="st0" d="M87,19.4c0-6.2-3-11.1-8.7-11.1c-5.8,0-9.2,4.9-9.2,11c0,7.3,4.1,10.9,10,10.9c2.9,0,5.1-0.7,6.7-1.6v-4.8
	c-1.6,0.8-3.5,1.3-5.9,1.3c-2.3,0-4.4-0.8-4.7-3.7H87C87,21.2,87,19.9,87,19.4z M75.1,17.1c0-2.7,1.7-3.9,3.2-3.9c1.5,0,3,1.1,3,3.9
	H75.1z"/>
<path class="st0" d="M59.7,8.3c-2.4,0-3.9,1.1-4.7,1.9l-0.3-1.5h-5.3v28.2l6-1.3l0-6.8c0.9,0.6,2.2,1.5,4.3,1.5
	c4.3,0,8.3-3.5,8.3-11.1C67.9,12.1,63.9,8.3,59.7,8.3z M58.3,24.9c-1.4,0-2.3-0.5-2.9-1.1l0-9c0.6-0.7,1.5-1.2,2.9-1.2
	c2.2,0,3.7,2.5,3.7,5.6C62,22.5,60.5,24.9,58.3,24.9z"/>
<path class="st0" d="M41,6.9l6.1-1.3V0.7L41,1.9V6.9z"/>
<path class="st1" d="M47.1,8.7H41v21.1h6.1V8.7z"/>
<path class="st0" d="M34.5,10.5l-0.4-1.8h-5.2v21.1h6V15.5c1.4-1.9,3.8-1.5,4.6-1.3V8.7C38.8,8.4,36,7.9,34.5,10.5z"/>
<path class="st0" d="M22.5,3.5l-5.9,1.3l0,19.4c0,3.6,2.7,6.2,6.3,6.2c2,0,3.4-0.4,4.2-0.8v-4.9c-0.8,0.3-4.6,1.4-4.6-2.2v-8.6H27
	V8.7h-4.6L22.5,3.5z"/>
<path class="st0" d="M6.1,14.8c0-0.9,0.8-1.3,2.1-1.3c1.8,0,4.2,0.6,6,1.5V9.4c-2-0.8-4-1.1-6-1.1C3.3,8.3,0,10.9,0,15.1
	c0,6.7,9.2,5.6,9.2,8.5c0,1.1-1,1.5-2.3,1.5c-2,0-4.6-0.8-6.6-1.9v5.7c2.2,1,4.5,1.4,6.6,1.4c5,0,8.5-2.5,8.5-6.8
	C15.3,16.3,6.1,17.6,6.1,14.8z"/>
</svg>
