<?xml version="1.0" encoding="utf-8"?>
<!-- Generator: Adobe Illustrator 24.2.3, SVG Export Plug-In . SVG Version: 6.00 Build 0)  -->
<svg version="1.1" id="Layer_1" xmlns="http://www.w3.org/2000/svg" xmlns:xlink="http://www.w3.org/1999/xlink" x="0px" y="0px"
	 width="68px" height="55px" viewBox="0 0 68 55" style="enable-background:new 0 0 68 55;" xml:space="preserve">
<style type="text/css">
	.st0{fill-rule:evenodd;clip-rule:evenodd;fill:#FF5533;}
</style>
<path class="st0" d="M23.5,19.9v-0.6c4.7,0,8.4,3.7,8.4,8.3c0,4.7-3.7,8.3-8.4,8.3s-8.4-3.7-8.4-8.3h3.7c0,2.8,2.1,5,4.7,5
	c2.6,0,4.7-2.2,4.7-5s-2.1-5-4.7-5v-1.4c-0.1,0.2-0.2,0.4-0.4,0.6c-0.3,0.3-0.8,0.5-1.3,0.5c-0.5,0-1-0.2-1.3-0.5
	c-0.4-0.3-0.5-0.8-0.6-1.3v0c0-0.5,0.2-1,0.6-1.3c0.3-0.3,0.8-0.5,1.3-0.5c0.5,0,1,0.2,1.3,0.5C23.3,19.5,23.4,19.7,23.5,19.9z
	 M61.3,47.9v3.2H68v3.2H57.7v-16h10.1v3.2h-6.5v3.2h5.9v3.2H61.3z M41.9,38.3h5.3c4.9,0,8.5,3.4,8.5,8c0,4.6-3.5,8-8.5,8h-5.3V38.3z
	 M45.5,51.1h2c2.7,0,4.5-2.1,4.5-4.8c0-2.7-1.8-4.8-4.5-4.8h-2V51.1z M24.7,51.4c1.8,0,3.1-1.4,3.1-3.2v-9.9h3.6v9.8
	c0,3.8-2.8,6.6-6.7,6.6c-3.9,0-6.7-2.8-6.7-6.6v-9.8h3.6v9.9C21.6,50,23,51.4,24.7,51.4z M47.4,19.7v9.8c0,3.8-2.8,6.6-6.7,6.6
	c-3.9,0-6.7-2.8-6.7-6.6v-9.8h3.6v9.9c0,1.8,1.3,3.2,3.1,3.2c1.8,0,3.1-1.4,3.1-3.2v-9.9H47.4z M9.6,35.7H6v-6l-6-10h4.1l3.7,6.6
	l3.8-6.6h4l-6,9.9V35.7z M42,1.1H29.9v3.2H42V1.1z M21.7,13.9h6.7v3.2H18.1v-16h10.1v3.2h-6.5v3.2h5.9v3.2h-5.9V13.9z M53.8,29.7
	l1.9,2l-1.8,2l2,2.1h-3.7l-2-2.1l1.8-2l-1.9-2l1.8-2l-1.8-2l1.8-2l-1.9-2l2-2.1h3.7l-2,2.1l1.9,2l-1.8,2l1.9,2L53.8,29.7z
	 M39.6,43.1c0,1.5-0.9,2.3-1.4,2.8h0c0,0-0.1,0.1-0.1,0.1c-0.3,0.2-0.3,0.3-0.3,0.4c0,0,0,0,0,0.1c0,0,0,0.1,0.4,0.4c0,0,0,0,0.1,0
	c0.5,0.5,1.4,1.3,1.4,2.7c0,1.5-0.9,2.3-1.4,2.8l-0.1,0.1c-0.2,0.2-0.3,0.6-0.3,0.9v1.1h-3.6v-1.5h0v0c0-1.5,1-2.4,1.4-2.8l0,0
	c0.4-0.3,0.4-0.4,0.4-0.5c0,0,0,0,0-0.1c0-0.1,0-0.1-0.4-0.4c-0.5-0.5-1.3-1.2-1.4-2.6v-0.2c0.1-1.4,1-2.2,1.4-2.6
	c0.4-0.3,0.4-0.4,0.4-0.5c0,0,0,0,0-0.1c0-0.1,0-0.1-0.4-0.4c-0.5-0.5-1.4-1.3-1.4-2.8v-0.1h0v-1.5h3.6v1.1c0,0.3,0.1,0.6,0.3,0.9
	l0.1,0.1l0,0C38.7,40.8,39.6,41.6,39.6,43.1z M37.8,14.1h-3.6v3h3.6V14.1z M37.8,9.8h-3.6v3h3.6V9.8z M37.8,5.6h-3.6v3h3.6V5.6z
	 M60.6,29.6l4.4,6.1h-4.4l-3.9-5.8v-3.1h2c0.5,0,0.9-0.3,1.2-0.6c0.3-0.4,0.5-0.8,0.5-1.3c0-0.5-0.2-0.9-0.5-1.3
	c-0.3-0.4-0.8-0.6-1.2-0.6h-2v-3.3h2.1c3,0,5.4,2.2,5.4,5.1c0,1.1-0.4,2.1-1,3C62.5,28.7,61.6,29.3,60.6,29.6z M7.7,0.8
	c3.4,0,6.4,1.8,7.3,4.6l-3.3,1.2C11.1,5,9.5,4,7.7,4C5.3,4,3.6,5.7,3.6,7.9v2.2c0,2.4,2.1,4.1,4.2,4.1s3.6-1.3,4-2.9H7.1v-3h8.5v8.8
	h-3.1v-2.4c-0.6,0.9-1.5,1.6-2.4,2c-1,0.5-2,0.7-3.1,0.7c-3.8,0-6.8-3.1-6.8-7.3V7.9C0.1,3.7,3.4,0.8,7.7,0.8z M7.7,38
	c3.4,0,6.4,1.8,7.3,4.6l-3.3,1.2c-0.5-1.5-2.2-2.5-4-2.5c-2.4,0-4.1,1.7-4.1,3.9v2.2c0,2.4,2.1,4.1,4.2,4.1s3.6-1.3,4-2.9H7.1v-3
	h8.5v8.8h-3.1v-2.4c-0.6,0.9-1.5,1.6-2.4,2c-1,0.5-2,0.7-3.1,0.7c-3.8,0-6.8-3.1-6.8-7.3v-2.2C0.1,40.9,3.4,38,7.7,38z M16.9,23
	c-0.2,0.3-0.3,0.7-0.3,1.1v0c0,0.2,0.1,0.5,0.1,0.7c0.1,0.2,0.2,0.4,0.4,0.6c0.2,0.2,0.4,0.3,0.6,0.4c0.2,0.1,0.5,0.1,0.7,0.1h0
	c0.4,0,0.7-0.1,1.1-0.3c0.3-0.2,0.5-0.5,0.7-0.9c0.1-0.3,0.2-0.7,0.1-1.1c-0.1-0.4-0.3-0.7-0.5-1c-0.3-0.3-0.6-0.4-1-0.5
	c-0.4-0.1-0.7,0-1.1,0.1S17.1,22.7,16.9,23z"/>
</svg>
