<?xml version="1.0" encoding="utf-8"?>
<!-- Generator: Adobe Illustrator 24.2.3, SVG Export Plug-In . SVG Version: 6.00 Build 0)  -->
<svg version="1.1" id="Layer_1" xmlns="http://www.w3.org/2000/svg" xmlns:xlink="http://www.w3.org/1999/xlink" x="0px" y="0px"
	 width="34px" height="34px" viewBox="0 0 34 34" style="enable-background:new 0 0 34 34;" xml:space="preserve">
<style type="text/css">
	.st0{fill:#4285F4;}
	.st1{fill:#34A853;}
	.st2{fill:#FBBC04;}
	.st3{fill:#EA4335;}
</style>
<path class="st0" d="M34,17.4c0-1.2-0.1-2.3-0.3-3.5H17.3v6.5h9.4c-0.4,2.1-1.6,4-3.5,5.2v4.2h5.6C32.1,26.9,34,22.6,34,17.4z"/>
<path class="st1" d="M17.3,34c4.7,0,8.6-1.5,11.5-4.1l-5.6-4.2c-1.6,1-3.6,1.6-5.9,1.6c-4.5,0-8.4-3-9.7-7H1.8v4.4
	C4.8,30.4,10.8,34,17.3,34z"/>
<path class="st2" d="M7.6,20.3c-0.7-2.1-0.7-4.4,0-6.5V9.4H1.8c-2.5,4.8-2.5,10.5,0,15.3L7.6,20.3z"/>
<path class="st3" d="M17.3,6.7c2.5,0,4.9,0.9,6.7,2.5l5-4.9C25.8,1.5,21.6,0,17.3,0C10.8,0,4.8,3.6,1.8,9.4l5.8,4.4
	C9,9.7,12.8,6.7,17.3,6.7z"/>
</svg>
