<?xml version="1.0" encoding="utf-8"?>
<!-- Generator: Adobe Illustrator 24.2.3, SVG Export Plug-In . SVG Version: 6.00 Build 0)  -->
<svg version="1.1" id="Layer_1" xmlns="http://www.w3.org/2000/svg" xmlns:xlink="http://www.w3.org/1999/xlink" x="0px" y="0px"
	 width="202px" height="42px" viewBox="0 0 202 42" style="enable-background:new 0 0 202 42;" xml:space="preserve">
<style type="text/css">
	.st0{fill:#34E0A1;}
</style>
<path d="M200.9,28.1c-0.6,0-1.1,0.5-1.1,1.1c0,0.6,0.5,1.1,1.1,1.1c0.6,0,1.1-0.5,1.1-1.1C202,28.6,201.5,28.1,200.9,28.1z
	 M200.9,30.1c-0.5,0-1-0.4-1-0.9c0-0.5,0.4-0.9,1-0.9c0.5,0,1,0.4,1,0.9C201.8,29.7,201.4,30.1,200.9,30.1z M201.2,29
	c0-0.2-0.1-0.3-0.4-0.3h-0.4v1h0.2v-0.4h0.2l0.2,0.4h0.2l-0.2-0.4C201.2,29.2,201.2,29.1,201.2,29z M200.9,29.2h-0.2v-0.3h0.2
	c0.1,0,0.2,0.1,0.2,0.2C201.1,29.1,201,29.2,200.9,29.2z M64,16.8v-2.7h-4.2v16H64v-9.6c0-1.7,1.1-2.6,2.9-2.6h2.3v-3.8h-2
	C65.8,14.1,64.4,14.9,64,16.8z M73.2,7.8c-1.4,0-2.5,1.1-2.5,2.5c0,1.4,1.1,2.5,2.5,2.5s2.5-1.1,2.5-2.5C75.8,8.9,74.7,7.8,73.2,7.8
	z M71.1,30.1h4.2v-16h-4.2V30.1z M95.3,22.1c0,4.6-3.8,8.3-8.4,8.3c-1.9,0-3.6-0.6-5-1.6v6h-4.2V14.1h4.2v1.4c1.4-1,3.1-1.6,5-1.6
	C91.5,13.9,95.3,17.6,95.3,22.1z M91.1,22.1c0-2.5-2.1-4.5-4.6-4.5s-4.6,2-4.6,4.5c0,2.5,2.1,4.5,4.6,4.5S91.1,24.6,91.1,22.1z
	 M168.3,20.7l-2.5-0.7c-1.6-0.4-2.2-0.9-2.2-1.7c0-0.8,0.9-1.4,2.1-1.4c1.2,0,2.1,0.8,2.1,1.8v0.1h3.9v-0.1c0-2.9-2.4-4.8-6-4.8
	c-3.6,0-6.2,1.9-6.2,4.6c0,2.1,1.4,3.7,3.9,4.3l2.3,0.6c1.8,0.5,2.4,1,2.4,2c0,1-1,1.7-2.4,1.7c-1.5,0-2.5-0.9-2.5-2.3v-0.1h-4.1
	v0.1c0,3.3,2.7,5.6,6.6,5.6c3.7,0,6.4-2.2,6.4-5.3C172.3,23.6,171.6,21.6,168.3,20.7z M110.2,14.1h4.2v16h-4.2v-1.4
	c-1.4,1-3.1,1.6-5,1.6c-4.7,0-8.4-3.7-8.4-8.3c0-4.6,3.8-8.3,8.4-8.3c1.9,0,3.6,0.6,5,1.6V14.1z M110.2,22.1c0-2.5-2.1-4.5-4.6-4.5
	c-2.5,0-4.6,2-4.6,4.5c0,2.5,2.1,4.5,4.6,4.5C108.2,26.6,110.2,24.6,110.2,22.1z M129.6,8.5h4.2v21.7h-4.2v-1.4
	c-1.4,1-3.1,1.6-5,1.6c-4.7,0-8.4-3.7-8.4-8.3c0-4.6,3.8-8.3,8.4-8.3c1.9,0,3.6,0.6,5,1.6V8.5z M129.6,22.1c0-2.5-2.1-4.5-4.6-4.5
	c-2.5,0-4.6,2-4.6,4.5c0,2.5,2.1,4.5,4.6,4.5C127.5,26.6,129.6,24.6,129.6,22.1z M153.3,30.1h4.2v-16h-4.2V30.1z M155.4,7.8
	c-1.4,0-2.5,1.1-2.5,2.5c0,1.4,1.1,2.5,2.5,2.5c1.4,0,2.5-1.1,2.5-2.5C157.9,8.9,156.8,7.8,155.4,7.8z M190.5,22.1
	c0,4.6-3.8,8.3-8.4,8.3s-8.4-3.7-8.4-8.3c0-4.6,3.8-8.3,8.4-8.3S190.5,17.6,190.5,22.1z M186.6,22.1c0-2.5-2.1-4.5-4.6-4.5
	c-2.5,0-4.6,2-4.6,4.5c0,2.5,2.1,4.5,4.6,4.5C184.6,26.6,186.6,24.6,186.6,22.1z M61.9,8.5H45.8v3.7h6v18h4.2v-18h6L61.9,8.5
	L61.9,8.5z M143.4,25.7l-3.7-11.6h-4.4l5.6,16h5.1l5.6-16h-4.4L143.4,25.7z M196.6,16.8v-2.7h-4.2v16h4.2v-9.6
	c0-1.7,1.1-2.6,2.9-2.6h2.3v-3.8h-2C198.3,14.1,197,14.9,196.6,16.8z"/>
<path class="st0" d="M21.5,42C33.4,42,43,32.6,43,21C43,9.4,33.4,0,21.5,0C9.6,0,0,9.4,0,21C0,32.6,9.6,42,21.5,42z"/>
<path d="M34.8,16.9l2.6-2.8h-5.7c-2.9-1.9-6.4-3-10.1-3c-3.8,0-7.2,1.1-10.1,3H5.6l2.6,2.8c-1.6,1.4-2.6,3.5-2.6,5.7
	c0,4.3,3.5,7.7,7.9,7.7c2.1,0,4-0.8,5.4-2.1l2.5,2.7l2.5-2.7c1.4,1.3,3.3,2.1,5.4,2.1c4.4,0,7.9-3.5,7.9-7.7
	C37.3,20.4,36.3,18.3,34.8,16.9z M13.6,27.9c-3,0-5.4-2.3-5.4-5.2c0-2.9,2.4-5.2,5.4-5.2c3,0,5.4,2.3,5.4,5.2
	C18.9,25.5,16.5,27.9,13.6,27.9z M21.5,22.5c0-3.4-2.6-6.4-6-7.7c1.8-0.7,3.8-1.2,6-1.2c2.1,0,4.1,0.4,6,1.2
	C24.1,16.1,21.5,19,21.5,22.5z M29.4,27.9c-3,0-5.4-2.3-5.4-5.2c0-2.9,2.4-5.2,5.4-5.2c3,0,5.4,2.3,5.4,5.2
	C34.8,25.5,32.4,27.9,29.4,27.9z M29.4,19.9c-1.6,0-2.8,1.2-2.8,2.7c0,1.5,1.3,2.7,2.8,2.7c1.6,0,2.8-1.2,2.8-2.7
	C32.2,21.1,31,19.9,29.4,19.9z M16.4,22.6c0,1.5-1.3,2.7-2.8,2.7c-1.6,0-2.8-1.2-2.8-2.7c0-1.5,1.3-2.7,2.8-2.7
	C15.1,19.9,16.4,21.1,16.4,22.6z"/>
</svg>
