<?xml version="1.0" encoding="utf-8"?>
<!-- Generator: Adobe Illustrator 24.2.3, SVG Export Plug-In . SVG Version: 6.00 Build 0)  -->
<svg version="1.1" id="Layer_1" xmlns="http://www.w3.org/2000/svg" xmlns:xlink="http://www.w3.org/1999/xlink" x="0px" y="0px"
	 width="132px" height="34px" viewBox="0 0 132 34" style="enable-background:new 0 0 132 34;" xml:space="preserve">
<style type="text/css">
	.st0{fill-rule:evenodd;clip-rule:evenodd;fill:#3E4348;}
	.st1{fill:#3E4348;}
</style>
<path class="st0" d="M5.5,1h22c1.5,0,2.9,0.6,3.9,1.6c1,1,1.6,2.4,1.6,3.9v22c0,3-2.5,5.5-5.5,5.5h-22c-3,0-5.5-2.5-5.5-5.5v-22
	C0,3.5,2.5,1,5.5,1z M25.3,28c1,0,1.7-0.8,1.7-1.7l0-17.5c0-1-0.8-1.7-1.7-1.7H7.7C7.3,7,6.8,7.2,6.5,7.5C6.2,7.8,6,8.3,6,8.7v17.5
	c0,1,0.8,1.7,1.7,1.7H25.3z"/>
<path class="st1" d="M13,22c-0.5,0-1-0.5-1-1v-7c0-0.3,0.1-0.5,0.3-0.7c0.2-0.2,0.4-0.3,0.7-0.3h7c0.3,0,0.5,0.1,0.7,0.3
	c0.2,0.2,0.3,0.4,0.3,0.7v7c0,0.3-0.1,0.5-0.3,0.7C20.5,21.9,20.3,22,20,22L13,22z"/>
<path class="st1" d="M49.8,16c-1-0.3-2-0.5-2.7-0.9c-1.4-0.6-2-1.5-2-2.7c0-2.3,2.2-3.4,4.5-3.4c2.1,0,4,0.9,5.2,2.5l0.1,0.1
	l1.8-1.4l-0.1-0.1c-1.7-2.1-4.1-3.3-6.9-3.3c-1.9,0-3.6,0.5-4.8,1.4c-1.4,1-2.1,2.5-2.1,4.2c0,4.1,3.9,5.1,6.9,5.9
	c3.1,0.8,5.1,1.5,5.1,3.8c0,2.4-1.9,3.9-4.8,3.9c-1.5,0-4.1-0.4-5.8-3l-0.1-0.1L42,24.4l0.1,0.1c1.6,2.4,4.4,3.8,7.6,3.8
	c4.4,0,7.3-2.5,7.3-6.2C57,18,53,16.9,49.8,16z"/>
<path class="st0" d="M71.3,15.2V13h2.1v21h-2.1v-8.2c-1.2,1.7-3,2.6-5.1,2.6c-4,0-6.8-3.2-6.8-7.8c0-4.6,2.8-7.9,6.8-7.9
	C68.3,12.6,70.1,13.5,71.3,15.2z M61.6,20.5c0,4.3,2.5,5.8,4.8,5.8l0,0c3,0,5-2.3,5-5.8s-2-5.8-5-5.8C62.8,14.7,61.6,17.7,61.6,20.5
	z"/>
<path class="st1" d="M87.4,13v8.3c0,2.9-2,5-4.7,5c-2.3,0-3.4-1.4-3.4-4.1V13h-2.1v9.6c0,3.6,2,5.8,5.2,5.8c2,0,3.8-0.9,5-2.4V28
	h2.1V13H87.4z"/>
<path class="st0" d="M93.4,14.5c1.6-1.2,3.7-1.9,5.8-1.9c3.4,0,5.4,1.7,5.3,4.5V28h-2.1v-1.7c-1.1,1.3-2.6,2-4.6,2
	c-3.2,0-5.2-1.8-5.2-4.6c0-3.7,3.5-4.3,5-4.5c0.2,0,0.5-0.1,0.7-0.1h0l0,0c2-0.3,4.1-0.6,4.1-2.4c0-1.9-2.5-2.1-3.3-2.1
	c-1.4,0-3.3,0.4-4.6,1.5l-0.1,0.1L93.4,14.5L93.4,14.5z M94.8,23.6c0,2.4,2.3,2.7,3.2,2.7h0c2.1,0,4.4-1.1,4.4-4.3v-2.2
	c-1,0.6-2.5,0.9-3.8,1.1l0,0L98,21C95.9,21.4,94.8,21.9,94.8,23.6z"/>
<path class="st1" d="M116.8,13.2c-0.5-0.4-1.3-0.6-2.1-0.6c-1.7,0-3.3,0.8-4.3,2.2V13h-2.1v15h2.1v-8c0-3.6,2-5.2,4-5.2
	c0.6,0,1.2,0.1,1.7,0.4l0.1,0.1L116.8,13.2L116.8,13.2z"/>
<path class="st0" d="M117.4,20.5c0-4.6,2.9-7.9,7-7.9c4,0,6.8,2.9,6.8,7c0,0.4,0,0.7-0.1,1.1l0,0.1h-11.5c0.1,3.3,2,5.4,5.1,5.4
	c1.8,0,3.3-0.7,4.3-2l0.1-0.1l1.5,1.4l-0.1,0.1c-1,1.2-2.9,2.7-5.9,2.7C120.3,28.3,117.4,25.2,117.4,20.5z M124.4,14.6
	c-2.6,0-4.4,1.7-4.7,4.3h9.3C128.8,16.9,127.5,14.6,124.4,14.6z"/>
</svg>
