<?xml version="1.0" encoding="utf-8"?>
<!-- Generator: Adobe Illustrator 24.2.3, SVG Export Plug-In . SVG Version: 6.00 Build 0)  -->
<svg version="1.1" id="Layer_1" xmlns="http://www.w3.org/2000/svg" xmlns:xlink="http://www.w3.org/1999/xlink" x="0px" y="0px"
	 width="146px" height="23px" viewBox="0 0 146 23" style="enable-background:new 0 0 146 23;" xml:space="preserve">
<style type="text/css">
	.st0{fill:#E63E30;}
</style>
<path class="st0" d="M140.7,7c-1.1,0-2,0.2-2.9,0.7c-0.9,0.5-1.6,1.2-2,2l-0.3-2.3h-4.2c0.2,1.3,0.2,2.7,0.2,4.3v10.7h4.5V14
	c0-1.1,0.3-1.9,0.9-2.5c0.6-0.6,1.4-1,2.3-1c0.8,0,1.5,0.2,1.8,0.7c0.4,0.5,0.6,1.3,0.6,2.2v8.8h4.5v-9C145.9,9.2,144.2,7,140.7,7z
	 M121.4,19.2c-2.3,0-3.4-1.5-3.4-4.4c0-1.5,0.3-2.5,0.9-3.3c0.6-0.8,1.5-1.1,2.5-1.1c1.1,0,1.9,0.4,2.5,1.1c0.6,0.8,0.9,1.8,0.9,3.3
	c0,1.5-0.3,2.5-0.9,3.3C123.4,18.9,122.5,19.2,121.4,19.2z M121.4,22.6c1.6,0,2.9-0.3,4.1-1c1.2-0.6,2-1.6,2.7-2.7
	c0.7-1.2,1-2.5,1-4.1c0-1.6-0.3-2.9-1-4.1c-0.7-1.2-1.6-2-2.7-2.7c-1.2-0.6-2.5-1-4.1-1c-1.6,0-3,0.3-4.2,1
	c-1.2,0.6-2.1,1.6-2.7,2.7c-0.7,1.2-1,2.5-1,4.1c0,1.6,0.3,2.9,1,4.1c0.7,1.2,1.6,2,2.7,2.7C118.4,22.3,119.8,22.6,121.4,22.6z
	 M104.2,19.2c-2.3,0-3.4-1.5-3.4-4.4c0-1.5,0.3-2.5,0.9-3.3c0.6-0.8,1.5-1.1,2.5-1.1c1.1,0,1.9,0.4,2.5,1.1c0.6,0.8,0.9,1.8,0.9,3.3
	c0,1.5-0.3,2.5-0.9,3.3C106.1,18.9,105.3,19.2,104.2,19.2z M104.2,22.6c1.6,0,2.9-0.3,4.1-1c1.2-0.6,2-1.6,2.7-2.7
	c0.7-1.2,1-2.5,1-4.1c0-1.6-0.3-2.9-1-4.1c-0.7-1.2-1.6-2-2.7-2.7c-1.2-0.6-2.5-1-4.1-1c-1.6,0-3,0.3-4.2,1
	c-1.2,0.6-2.1,1.6-2.7,2.7c-0.7,1.2-1,2.5-1,4.1c0,1.6,0.3,2.9,1,4.1c0.7,1.2,1.6,2,2.7,2.7C101.2,22.3,102.6,22.6,104.2,22.6z
	 M94,0.7h-4.5v21.7H94V0.7z M86.6,0.7h-4.5v21.7h4.5V0.7z M71.3,19.2c-1.2,0-1.9-0.4-2.5-1.1c-0.6-0.8-0.9-1.8-0.9-3.2
	s0.3-2.5,0.9-3.3c0.6-0.8,1.5-1.2,2.5-1.2c1.1,0,1.9,0.4,2.5,1.2c0.6,0.8,0.9,1.8,0.9,3.2c0,1.5-0.3,2.5-0.9,3.2
	C73.3,18.8,72.4,19.2,71.3,19.2z M74.7,7.4v2.1c-0.5-0.8-1.1-1.4-1.9-1.8C72,7.2,71.1,7,70,7c-1.3,0-2.4,0.3-3.4,1
	c-1,0.7-1.7,1.6-2.3,2.8c-0.6,1.2-0.9,2.5-0.9,4.1c0,1.6,0.3,2.9,0.9,4.1c0.6,1.2,1.4,2,2.3,2.7c1,0.6,2.1,1,3.4,1
	c1.1,0,1.9-0.2,2.8-0.7c0.8-0.4,1.5-1.1,1.9-1.7v2.2h4.4V7.4H74.7z M54,19.2c-1.1,0-1.9-0.4-2.5-1.2c-0.6-0.8-0.9-1.8-0.9-3.2
	s0.3-2.4,0.9-3.2c0.6-0.8,1.5-1.2,2.5-1.2c1.1,0,1.9,0.4,2.5,1.1c0.6,0.8,0.9,1.8,0.9,3.2c0,1.5-0.3,2.5-0.9,3.3
	C56,18.8,55.1,19.2,54,19.2z M55.3,7c-1,0-1.9,0.2-2.8,0.7c-0.9,0.5-1.5,1.1-1.9,1.8V0.7h-4.5v21.7h4.5v-2.2
	c0.4,0.8,1.1,1.4,1.9,1.8c0.9,0.5,1.7,0.7,2.8,0.7c1.3,0,2.4-0.3,3.4-1c1-0.7,1.7-1.6,2.3-2.7c0.6-1.2,0.9-2.5,0.9-4.1
	c0-1.6-0.3-2.9-0.8-4.1c-0.6-1.2-1.4-2-2.3-2.7C57.7,7.3,56.6,7,55.3,7z M35.4,19.2c-1.1,0-1.9-0.4-2.5-1.2
	c-0.6-0.8-0.9-1.8-0.9-3.3c0-1.4,0.3-2.4,0.9-3.2c0.6-0.8,1.5-1.1,2.5-1.1c1.1,0,1.9,0.4,2.5,1.2c0.6,0.8,0.9,1.8,0.9,3.2
	c0,1.5-0.3,2.5-0.9,3.2C37.3,18.8,36.5,19.2,35.4,19.2z M38.7,0.7v8.7c-0.5-0.8-1.1-1.4-1.9-1.7C36,7.2,35.1,7,34,7
	c-1.3,0-2.4,0.3-3.4,1c-1,0.7-1.7,1.6-2.3,2.7c-0.6,1.2-0.9,2.5-0.9,4.1c0,1.6,0.3,2.9,0.9,4.1c0.6,1.2,1.4,2.1,2.3,2.7
	c1,0.7,2.1,1,3.4,1c1.1,0,1.9-0.2,2.8-0.7c0.8-0.4,1.5-1.1,1.9-1.7v2.2h4.4V0.7H38.7z M19.1,10.2c1.7,0,2.6,1,2.8,2.9H16
	c0.2-1,0.5-1.7,1-2.1C17.6,10.4,18.3,10.2,19.1,10.2z M25.9,14.6c0-2.3-0.6-4.2-1.8-5.5c-1.3-1.4-2.9-2-5-2c-1.5,0-2.7,0.3-3.8,1
	c-1.2,0.7-1.9,1.6-2.6,2.7c-0.6,1.2-1,2.5-1,4.1c0,2.4,0.7,4.3,2.1,5.6c1.5,1.4,3.4,2,5.9,2c1.1,0,2.1-0.2,3.2-0.5
	c1.1-0.3,1.9-0.8,2.6-1.4l-1.2-3c-0.7,0.5-1.4,0.9-2.1,1.1c-0.8,0.3-1.6,0.4-2.3,0.4c-1.3,0-2.2-0.3-2.9-1c-0.7-0.7-1-1.7-1.1-3h9.8
	L25.9,14.6z M8.9,7.1C8,7.1,7,7.4,6.2,7.9c-0.8,0.5-1.4,1.3-1.7,2.1L4.2,7.5H0c0.2,1.3,0.2,2.7,0.2,4.3v10.7h4.5v-7.8
	c0-1.2,0.3-2,1-2.6c0.7-0.6,1.6-1,2.7-1c0.7,0,1.5,0.2,2.1,0.5V7.5C10.1,7.2,9.5,7.1,8.9,7.1z"/>
</svg>
