<?xml version="1.0" encoding="utf-8"?>
<!-- Generator: Adobe Illustrator 24.2.3, SVG Export Plug-In . SVG Version: 6.00 Build 0)  -->
<svg version="1.1" id="Layer_1" xmlns="http://www.w3.org/2000/svg" xmlns:xlink="http://www.w3.org/1999/xlink" x="0px" y="0px"
	 width="106px" height="29px" viewBox="0 0 106 29" style="enable-background:new 0 0 106 29;" xml:space="preserve">
<style type="text/css">
	.st0{fill:#007D9E;}
	.st1{fill:#D04426;}
</style>
<path class="st0" d="M21.7,8.4l-8.5,20.3H8.5L0,8.4h4.8l6.1,15l6.3-15H21.7z M23.9,28.6h4.6V8.4h-4.6V28.6z M46.7,23.1
	c1.1-1.2,1.7-2.7,1.7-4.6c0-1.9-0.6-3.4-1.7-4.6c-1.1-1.2-2.5-1.7-4.2-1.7s-3.1,0.6-4.2,1.7c-1.1,1.2-1.6,2.7-1.6,4.6
	c0,1.9,0.5,3.4,1.6,4.6c1.1,1.2,2.5,1.7,4.2,1.7C44.2,24.8,45.6,24.2,46.7,23.1z M52.9,8.4v20.3h-4.4V26c-0.8,1-1.7,1.7-2.8,2.2
	c-1.1,0.5-2.4,0.7-3.7,0.7c-1.9,0-3.6-0.4-5.2-1.3c-1.5-0.8-2.7-2.1-3.5-3.6c-0.9-1.6-1.3-3.4-1.3-5.5c0-2.1,0.4-3.9,1.3-5.4
	c0.8-1.5,2.1-2.8,3.5-3.6C38.3,8.6,40,8.1,42,8.1c1.3,0,2.5,0.2,3.5,0.7c1.1,0.5,2,1.1,2.8,2V8.4H52.9z M68.9,27.5
	c-0.5,0.5-1.2,0.8-2,1c-0.8,0.2-1.6,0.3-2.5,0.3c-2.2,0-3.8-0.6-5-1.7c-1.2-1.2-1.8-2.9-1.8-5.1V3.9h4.6v4.6h5.3v3.8h-5.3v9.6
	c0,1,0.2,1.7,0.7,2.3c0.5,0.5,1.2,0.8,2,0.8c1,0,1.9-0.3,2.6-0.8L68.9,27.5z M84.2,23.1c1.1-1.2,1.7-2.7,1.7-4.6
	c0-1.9-0.6-3.4-1.7-4.6c-1.1-1.2-2.5-1.7-4.2-1.7s-3.1,0.6-4.2,1.7c-1.1,1.2-1.6,2.7-1.6,4.6c0,1.9,0.5,3.4,1.6,4.6
	c1.1,1.2,2.5,1.7,4.2,1.7C81.7,24.8,83.1,24.2,84.2,23.1z M74.6,27.6c-1.6-0.9-2.9-2.1-3.8-3.7c-0.9-1.6-1.3-3.4-1.3-5.4
	c0-2,0.4-3.8,1.3-5.3c0.9-1.6,2.2-2.8,3.8-3.7C76.2,8.6,78,8.1,80,8.1c2,0,3.8,0.4,5.4,1.3c1.6,0.9,2.9,2.1,3.8,3.7
	c0.9,1.6,1.3,3.4,1.3,5.3c0,2-0.5,3.8-1.3,5.4c-0.9,1.6-2.2,2.8-3.8,3.7c-1.6,0.9-3.4,1.3-5.4,1.3C78,28.9,76.2,28.4,74.6,27.6z
	 M105.5,8.1v4.5c-0.4-0.1-0.7-0.1-1.1-0.1c-1.8,0-3.2,0.5-4.2,1.6c-1,1.1-1.5,2.6-1.5,4.6v9.8h-4.6V8.4h4.4v3
	C99.8,9.2,102.1,8.1,105.5,8.1z"/>
<path class="st1" d="M28.5,3.1c0-0.4-0.1-0.7-0.2-1c-0.1-0.3-0.3-0.6-0.6-0.9c-0.2-0.3-0.5-0.4-0.9-0.6c-0.3-0.1-0.7-0.2-1-0.2
	c-0.3,0-0.7,0.1-1,0.2c-0.3,0.1-0.6,0.3-0.9,0.6c-0.2,0.3-0.4,0.5-0.6,0.9s-0.2,0.7-0.2,1c0,0.4,0.1,0.7,0.2,1
	C23.6,4.4,23.8,4.7,24,5c0.2,0.3,0.5,0.4,0.9,0.6c0.3,0.1,0.7,0.2,1,0.2h2.6L28.5,3.1L28.5,3.1z"/>
</svg>
