<?xml version="1.0" encoding="utf-8"?>
<!-- Generator: Adobe Illustrator 24.2.3, SVG Export Plug-In . SVG Version: 6.00 Build 0)  -->
<svg version="1.1" id="Layer_1" xmlns="http://www.w3.org/2000/svg" xmlns:xlink="http://www.w3.org/1999/xlink" x="0px" y="0px"
	 width="93px" height="25px" viewBox="0 0 93 25" style="enable-background:new 0 0 93 25;" xml:space="preserve">
<style type="text/css">
	.st0{fill:#FF5722;}
</style>
<path class="st0" d="M61.8,1C61.7,1,61.7,1,61.8,1c-4.3,0-8,2.2-10.1,5.5C49.6,3.2,45.8,1,41.6,1h-0.1c-6.6,0-12,5.5-11.9,12.1
	c0,6.6,5.4,11.9,12,11.9h0.1c4.2,0,7.9-2.2,10.1-5.5c2.2,3.3,5.8,5.5,10.1,5.5h0.1c6.6,0,12-5.5,11.9-12.1C73.7,6.4,68.3,1,61.8,1z
	 M41.6,21.2c-2.3,0-4.3-0.8-5.8-2.4c-1.6-1.5-2.4-3.5-2.4-5.7s0.8-4.2,2.4-5.8c1.5-1.6,3.5-2.4,5.8-2.4h0.1c2.2,0,4.2,0.8,5.8,2.4
	c1.6,1.5,2.4,3.5,2.4,5.7C49.8,17.4,46.2,21.2,41.6,21.2z M61.8,21.2c-2.3,0-4.3-0.8-5.8-2.4c-1.6-1.5-2.4-3.5-2.4-5.7
	s0.8-4.2,2.4-5.8c1.5-1.6,3.5-2.4,5.8-2.4h-0.1c2.2,0,4.2,0.8,5.8,2.4c1.6,1.5,2.4,3.5,2.4,5.7C70.1,17.4,66.4,21.2,61.8,21.2z M0,1
	v24c2.1,0,3.8-1.7,3.8-3.8V4.8C3.8,2.7,2.1,1,0,1z"/>
<path class="st0" d="M29,21.2h-4.7V4.8c0-2.1-1.7-3.8-3.8-3.8v24h3.8h8.5C32.8,22.9,31.2,21.2,29,21.2z M75.3,1v24
	c2.1,0,3.8-1.7,3.8-3.8V4.8C79.1,2.7,77.4,1,75.3,1z M91.7,19.6L85,13l6.6-6.6c1.5-1.5,1.5-3.9,0-5.4l-12,12l12,12
	C93.1,23.5,93.1,21.1,91.7,19.6z M9.7,13l6.6-6.6c1.5-1.5,1.5-3.9,0-5.4L4.5,13l12,12c1.5-1.5,1.5-3.9,0-5.4L9.7,13z"/>
</svg>
